<svg width="17" height="17" viewBox="0 0 17 17" fill="none" xmlns="http://www.w3.org/2000/svg">
<path d="M7.71005 2.20093H2.36005C1.95454 2.20093 1.56563 2.36202 1.27889 2.64876C0.992145 2.9355 0.831055 3.32441 0.831055 3.72993V14.4299C0.831055 14.8354 0.992145 15.2244 1.27889 15.5111C1.56563 15.7978 1.95454 15.9589 2.36005 15.9589H13.0601C13.4656 15.9589 13.8545 15.7978 14.1412 15.5111C14.428 15.2244 14.5891 14.8354 14.5891 14.4299V9.07993" stroke="#40676E" stroke-linecap="round" stroke-linejoin="round"/>
<path d="M13.4431 1.05497C13.7471 0.750903 14.1595 0.580078 14.5896 0.580078C15.0196 0.580078 15.432 0.750903 15.7361 1.05497C16.0401 1.35904 16.2109 1.77145 16.2109 2.20147C16.2109 2.63149 16.0401 3.0439 15.7361 3.34797L8.47505 10.609L5.41705 11.373L6.18105 8.31597L13.4431 1.05497Z" stroke="#40676E" stroke-linecap="round" stroke-linejoin="round"/>
</svg>
