<svg width="36" height="36" viewBox="0 0 36 36" fill="none" xmlns="http://www.w3.org/2000/svg">
<path d="M18 0C21.5601 0 25.0402 1.05568 28.0003 3.03355C30.9604 5.01141 33.2675 7.82263 34.6298 11.1117C35.9922 14.4008 36.3487 18.02 35.6541 21.5116C34.9596 25.0033 33.2453 28.2106 30.7279 30.7279C28.2106 33.2453 25.0033 34.9596 21.5116 35.6541C18.02 36.3487 14.4008 35.9922 11.1117 34.6298C7.82263 33.2675 5.01141 30.9604 3.03355 28.0003C1.05568 25.0402 0 21.5601 0 18C0 13.2261 1.89642 8.64773 5.27208 5.27208C8.64773 1.89642 13.2261 0 18 0Z" fill="white"/>
<path d="M17.7101 12.2009H12.3601C11.9545 12.2009 11.5656 12.362 11.2789 12.6488C10.9921 12.9355 10.8311 13.3244 10.8311 13.7299V24.4299C10.8311 24.8354 10.9921 25.2244 11.2789 25.5111C11.5656 25.7978 11.9545 25.9589 12.3601 25.9589H23.0601C23.4656 25.9589 23.8545 25.7978 24.1412 25.5111C24.428 25.2244 24.5891 24.8354 24.5891 24.4299V19.0799" stroke="#40676E" stroke-linecap="round" stroke-linejoin="round"/>
<path d="M23.4431 11.055C23.7471 10.7509 24.1595 10.5801 24.5896 10.5801C25.0196 10.5801 25.432 10.7509 25.7361 11.055C26.0401 11.359 26.2109 11.7715 26.2109 12.2015C26.2109 12.6315 26.0401 13.0439 25.7361 13.348L18.4751 20.609L15.4171 21.373L16.1811 18.316L23.4431 11.055Z" stroke="#40676E" stroke-linecap="round" stroke-linejoin="round"/>
</svg>
