<svg width="26" height="28" viewBox="0 0 26 28" fill="none" xmlns="http://www.w3.org/2000/svg">
<path d="M24.501 28C24.2358 28 23.9814 27.8947 23.7939 27.7071C23.6064 27.5196 23.501 27.2652 23.501 27V24.111C23.4997 22.8442 22.9959 21.6297 22.1001 20.7339C21.2043 19.8382 19.9898 19.3343 18.723 19.333H7.16801C5.90122 19.3343 4.68668 19.8382 3.79092 20.7339C2.89516 21.6297 2.39134 22.8442 2.39001 24.111V27C2.39001 27.2652 2.28466 27.5196 2.09712 27.7071C1.90958 27.8947 1.65523 28 1.39001 28C1.1248 28 0.870444 27.8947 0.682908 27.7071C0.495371 27.5196 0.390015 27.2652 0.390015 27V24.111C0.391868 22.3139 1.10657 20.591 2.37729 19.3203C3.64801 18.0496 5.37095 17.3349 7.16801 17.333H18.723C20.5201 17.3349 22.243 18.0496 23.5137 19.3203C24.7845 20.591 25.4992 22.3139 25.501 24.111V27C25.501 27.2652 25.3957 27.5196 25.2081 27.7071C25.0206 27.8947 24.7662 28 24.501 28Z" fill="white"/>
<path d="M12.89 0C14.6786 0.0708348 16.3665 0.846955 17.5845 2.15868C18.8025 3.47041 19.4517 5.21103 19.39 7C19.4517 8.78897 18.8025 10.5296 17.5845 11.8413C16.3665 13.153 14.6786 13.9292 12.89 14C11.1014 13.9292 9.41354 13.153 8.19551 11.8413C6.97748 10.5296 6.32834 8.78897 6.39001 7C6.32834 5.21103 6.97748 3.47041 8.19551 2.15868C9.41354 0.846955 11.1014 0.0708348 12.89 0ZM12.89 12C14.148 11.9289 15.327 11.3635 16.1699 10.4269C17.0128 9.49033 17.4514 8.25854 17.39 7C17.4514 5.74146 17.0128 4.50967 16.1699 3.57309C15.327 2.63651 14.148 2.07107 12.89 2C11.632 2.07107 10.453 2.63651 9.61011 3.57309C8.76719 4.50967 8.32863 5.74146 8.39001 7C8.32863 8.25854 8.76719 9.49033 9.61011 10.4269C10.453 11.3635 11.632 11.9289 12.89 12Z" fill="white"/>
</svg>
